<?xml version="1.0" encoding="UTF-8" standalone="no"?>
<svg version="1.1" id="svg" width="1487" height="272" xmlns="http://www.w3.org/2000/svg">
   <text
      style="font-weight:600;font-stretch:condensed;font-size:224px;font-family:Roboto, 'Helvetica Neue', Arial;font-style:normal;font-variant:normal;font-variant-ligatures:normal;font-variant-caps:normal;font-variant-numeric:normal"
      x="304" y="219" fill="#111111" id="text">Kaumei JDBC</text>
   <path id="path" style="display:inline;fill:#111111;stroke-width:0.339759;fill-opacity:1"
      d="m 187.56674,53.438174 c -1.6867,-0.04683 -3.12326,0.06741 -3.31995,0.264109 -0.21818,0.21822 -0.31247,2.730565 -0.25416,6.777268 l 0.093,6.430878 3.28544,0.214335 c 5.78061,0.377392 8.40276,1.440305 10.44627,4.234378 2.41453,3.301394 2.74496,6.279277 2.75523,24.880079 0.009,16.137339 0.24703,20.400649 1.36568,24.504469 1.88141,6.90211 6.40346,12.35655 12.46757,15.03899 l 1.55611,0.68881 -2.68753,1.38691 c -4.07975,2.10586 -7.51948,5.66863 -9.45353,9.79263 -2.80255,5.97585 -3.25697,10.01484 -3.25825,28.95253 -9.4e-4,19.15683 -0.44776,22.19239 -3.73601,25.40361 -2.10749,2.05813 -4.19415,2.75277 -9.00364,2.99612 l -3.73734,0.18912 -0.093,6.27494 c -0.0511,3.45103 -0.0112,6.49086 0.0916,6.75536 0.24984,0.65111 9.61766,0.32804 12.68455,-0.43732 8.01335,-1.9997 14.03469,-7.54887 16.74775,-15.43448 1.63809,-4.76123 1.8013,-6.98495 1.84213,-25.18861 0.0434,-19.34463 0.19648,-20.99616 2.35377,-25.36117 1.86487,-3.77332 4.99545,-6.28441 9.70703,-7.78726 1.0197,-0.32524 2.04451,-0.73983 2.27809,-0.92107 0.31242,-0.24235 0.42391,-1.95845 0.42006,-6.48859 -0.002,-3.38745 -0.11756,-6.31929 -0.25482,-6.51515 -0.13722,-0.19587 -1.24395,-0.62678 -2.45861,-0.95823 -4.45526,-1.21572 -8.29443,-4.2368 -10.01958,-7.88346 -1.92303,-4.06489 -1.97777,-4.75437 -2.02926,-25.457407 -0.0418,-16.767649 -0.11849,-19.3657 -0.64766,-21.883941 C 211.9428,60.749002 202.8092,53.861373 187.56669,53.438174 Z m -99.972839,0.221642 -4.756625,0.04978 c -5.643716,0.05938 -8.679015,0.730926 -13.07675,2.892598 -4.027668,1.97977 -7.777116,5.736978 -9.778694,9.798599 -3.029411,6.147294 -3.660025,11.481144 -3.390294,28.68311 0.32194,20.531847 -0.368682,24.997187 -4.576794,29.601557 -1.881737,2.05891 -5.225697,3.92361 -8.251108,4.60065 l -1.881284,0.42139 0.09158,6.77793 0.09224,6.77792 1.868677,0.58464 c 5.73272,1.79338 9.407334,5.16516 11.205421,10.28103 1.179209,3.35507 1.40762,7.12203 1.501707,24.74666 0.0845,15.8274 0.144867,17.37837 0.784367,20.20705 2.41954,10.70237 8.870617,17.14118 19.03448,18.99731 1.535379,0.28039 4.414833,0.45659 6.886097,0.42206 l 4.246998,-0.0591 v -6.62531 -6.62529 l -4.079111,-0.17447 c -3.569584,-0.15256 -4.321278,-0.29259 -6.016789,-1.12214 -3.346938,-1.63752 -5.029591,-4.53192 -5.688314,-9.78534 -0.198757,-1.58513 -0.354357,-9.45443 -0.354357,-17.8871 0,-16.15641 -0.239618,-19.88666 -1.573377,-24.50114 -1.61763,-5.59663 -4.982068,-10.07989 -10.033516,-13.37007 l -2.645742,-1.72268 2.097616,-1.22367 c 2.790556,-1.62762 6.441223,-5.09416 7.908691,-7.50987 1.591209,-2.6194 2.766941,-5.83811 3.446036,-9.43296 0.455162,-2.40942 0.607082,-6.51084 0.808255,-21.823556 0.261573,-19.909955 0.340232,-20.875004 1.942998,-23.953036 1.939234,-3.724182 5.280608,-5.206003 12.828566,-5.688976 l 1.359044,-0.08694 v -6.625267 z m 54.021709,26.176725 c -6.62491,0.0199 -9.88803,0.852265 -16.27327,4.150101 -15.42706,7.967761 -27.554773,27.130628 -30.267768,47.826428 -0.595079,4.53963 -0.678267,13.98372 -0.15986,18.17711 2.073456,16.77387 9.875928,31.29696 19.998028,37.2222 2.96291,1.73441 6.87054,3.1165 9.93662,3.51439 10.58208,1.37329 23.46047,-5.10844 33.07277,-16.64554 12.25539,-14.70939 18.60342,-36.29214 16.46042,-55.96536 -1.86443,-17.11618 -9.21632,-29.952568 -20.38023,-35.582489 -4.37803,-2.207819 -6.70301,-2.713919 -12.38663,-2.69684 z m 5.45209,9.758134 c 0.0112,7.5e-5 0.0208,0.0038 0.0265,0.0093 0.0807,0.09771 -0.59607,1.597561 -1.50968,3.341843 -0.91717,1.751115 -2.59064,4.942176 -3.71876,7.091142 -5.22732,9.95743 -7.38328,19.44283 -6.57355,28.91803 0.19882,2.32636 0.81604,6.70701 1.37166,9.7349 2.00438,10.92291 2.0971,17.18984 0.34705,23.50509 -1.49002,5.37693 -5.42687,11.3603 -9.25445,14.06553 -2.30788,1.63114 -3.63849,2.39427 -3.63849,2.08697 0,-0.10876 0.67752,-1.37542 1.50569,-2.81494 4.02848,-7.00229 6.28228,-15.83424 5.83763,-22.87402 -0.25077,-3.96996 -0.85652,-7.267 -2.64707,-14.39864 -2.14999,-8.56318 -2.17413,-15.57749 -0.0782,-22.85942 1.66292,-5.77782 6.43251,-14.41541 10.49471,-19.005295 1.70003,-1.920858 7.34192,-6.804219 7.83702,-6.800494 z" />
   <rect id="rect" x="8" y="8" width="256" height="256" rx="60" ry="60"
         fill="none" stroke="#111111" stroke-width="16" />
</svg>
